<svg width="24" height="24" viewBox="0 0 24 24" fill="none" xmlns="http://www.w3.org/2000/svg">
<path d="M20 4C21.1046 4 22 4.89543 22 6V18C22 19.1046 21.1046 20 20 20H4C2.89543 20 2 19.1046 2 18V6C2 4.89543 2.89543 4 4 4H20ZM12 19H19C19.5523 19 20 18.5523 20 18V6C20 5.44772 19.5523 5 19 5H12V19ZM18.5 15.25C18.9142 15.25 19.25 15.5858 19.25 16C19.25 16.4142 18.9142 16.75 18.5 16.75H13.5C13.0858 16.75 12.75 16.4142 12.75 16C12.75 15.5858 13.0858 15.25 13.5 15.25H18.5ZM18.5 11.25C18.9142 11.25 19.25 11.5858 19.25 12C19.25 12.4142 18.9142 12.75 18.5 12.75H13.5C13.0858 12.75 12.75 12.4142 12.75 12C12.75 11.5858 13.0858 11.25 13.5 11.25H18.5ZM18.5 7.25C18.9142 7.25 19.25 7.58579 19.25 8C19.25 8.41421 18.9142 8.75 18.5 8.75H13.5C13.0858 8.75 12.75 8.41421 12.75 8C12.75 7.58579 13.0858 7.25 13.5 7.25H18.5Z" fill="#A6A6A6"/>
</svg>
