<svg width="8" height="8" viewBox="0 0 8 8" fill="none" xmlns="http://www.w3.org/2000/svg">
<path d="M7.61037 0.0419871C7.70737 -0.0217992 7.8395 -0.011095 7.92482 0.0742137C8.01008 0.15954 8.02084 0.291688 7.95705 0.388667L7.92482 0.427729L4.35255 3.99999L7.92482 7.57226L7.95607 7.61132C8.02032 7.70825 8.01 7.84023 7.92482 7.92578C7.83946 8.01113 7.70738 8.02191 7.61037 7.958L7.5713 7.92578L3.99904 4.35351L0.426773 7.92578L0.38771 7.958C0.290724 8.02189 0.158622 8.01107 0.0732573 7.92578C-0.0120003 7.84023 -0.0222594 7.70828 0.0420073 7.61132L0.0732573 7.57226L3.64552 3.99999L0.0732573 0.427729L0.0410308 0.388667C-0.0228896 0.291647 -0.0121091 0.15958 0.0732573 0.0742137C0.15864 -0.0110806 0.290724 -0.0219392 0.38771 0.0419871L0.426773 0.0742137L3.99904 3.64648L7.5713 0.0742137L7.61037 0.0419871Z" fill="#5C5C5C"/>
</svg>
