<svg width="272" height="32" viewBox="0 0 272 32" fill="none" xmlns="http://www.w3.org/2000/svg">
<g opacity="0.5">
<rect width="32" height="32" rx="16" fill="#A6A6A6"/>
<path d="M19.1599 11.41L14.5799 16L19.1599 20.59L17.7499 22L11.7499 16L17.7499 10L19.1599 11.41Z" fill="#F2F2F2"/>
</g>
<rect x="40.5" y="0.5" width="31" height="31" rx="15.5" fill="white"/>
<rect x="40.5" y="0.5" width="31" height="31" rx="15.5" stroke="#1ACDFF"/>
<path d="M55.8291 20V12.084H55.7061L53.2861 13.7656V11.9062L55.8359 10.1357H57.8936V20H55.8291Z" fill="#1ACDFF"/>
<rect x="80.5" y="0.5" width="31" height="31" rx="15.5" fill="white"/>
<rect x="80.5" y="0.5" width="31" height="31" rx="15.5" stroke="#D6D6D6"/>
<path d="M92.4161 20V18.4489L96.0404 15.093C96.3486 14.7947 96.6072 14.5263 96.816 14.2876C97.0281 14.049 97.1888 13.8153 97.2982 13.5866C97.4076 13.3546 97.4623 13.1044 97.4623 12.8359C97.4623 12.5376 97.3943 12.2808 97.2584 12.0653C97.1225 11.8466 96.9369 11.6792 96.7016 11.5632C96.4663 11.4439 96.1995 11.3842 95.9012 11.3842C95.5896 11.3842 95.3179 11.4472 95.0858 11.5732C94.8538 11.6991 94.6749 11.8797 94.5489 12.1151C94.423 12.3504 94.36 12.6304 94.36 12.9553H92.3167C92.3167 12.2891 92.4675 11.7107 92.7691 11.2202C93.0707 10.7296 93.4933 10.3501 94.0368 10.0817C94.5804 9.81321 95.2068 9.67898 95.9161 9.67898C96.6453 9.67898 97.28 9.80824 97.8202 10.0668C98.3638 10.322 98.7864 10.6766 99.088 11.1307C99.3896 11.5848 99.5404 12.1051 99.5404 12.6918C99.5404 13.0762 99.4642 13.4557 99.3117 13.8303C99.1626 14.2048 98.8957 14.6207 98.5113 15.0781C98.1268 15.5322 97.5849 16.0774 96.8856 16.7138L95.3991 18.1705V18.2401H99.6746V20H92.4161Z" fill="black"/>
<rect x="120.5" y="0.5" width="31" height="31" rx="15.5" fill="white"/>
<rect x="120.5" y="0.5" width="31" height="31" rx="15.5" stroke="#D6D6D6"/>
<path d="M135.975 20.1392C135.232 20.1392 134.571 20.0116 133.991 19.7564C133.414 19.4979 132.958 19.1432 132.624 18.6925C132.292 18.2384 132.122 17.7147 132.112 17.1214H134.279C134.292 17.37 134.374 17.5888 134.523 17.7777C134.675 17.9633 134.877 18.1075 135.129 18.2102C135.381 18.313 135.665 18.3643 135.979 18.3643C136.308 18.3643 136.598 18.3063 136.85 18.1903C137.101 18.0743 137.299 17.9136 137.441 17.7081C137.584 17.5026 137.655 17.2656 137.655 16.9972C137.655 16.7254 137.579 16.4851 137.426 16.2763C137.277 16.0642 137.062 15.8984 136.78 15.7791C136.502 15.6598 136.17 15.6001 135.786 15.6001H134.836V14.0192H135.786C136.11 14.0192 136.397 13.9628 136.646 13.8501C136.898 13.7375 137.093 13.5817 137.232 13.3828C137.372 13.1806 137.441 12.9453 137.441 12.6768C137.441 12.4216 137.38 12.1979 137.257 12.0057C137.138 11.8101 136.969 11.6577 136.75 11.5483C136.535 11.4389 136.283 11.3842 135.994 11.3842C135.703 11.3842 135.436 11.4373 135.194 11.5433C134.952 11.6461 134.758 11.7936 134.612 11.9858C134.466 12.178 134.389 12.4034 134.379 12.6619H132.315C132.325 12.0753 132.493 11.5582 132.818 11.1108C133.142 10.6634 133.58 10.3137 134.13 10.0618C134.684 9.80658 135.308 9.67898 136.004 9.67898C136.707 9.67898 137.322 9.80658 137.849 10.0618C138.376 10.317 138.785 10.6617 139.077 11.0959C139.372 11.5268 139.518 12.0107 139.514 12.5476C139.518 13.1177 139.34 13.5933 138.982 13.9744C138.628 14.3556 138.165 14.5975 137.595 14.7003V14.7798C138.344 14.8759 138.914 15.1361 139.305 15.5604C139.7 15.9813 139.895 16.5083 139.892 17.1413C139.895 17.7214 139.728 18.2367 139.39 18.6875C139.055 19.1383 138.593 19.4929 138.003 19.7514C137.413 20.0099 136.737 20.1392 135.975 20.1392Z" fill="black"/>
<rect x="160.5" y="0.5" width="31" height="31" rx="15.5" fill="white"/>
<rect x="160.5" y="0.5" width="31" height="31" rx="15.5" stroke="#D6D6D6"/>
<path d="M171.927 18.2102V16.5149L176.178 9.81818H177.639V12.1648H176.774L174.095 16.4055V16.4851H180.135V18.2102H171.927ZM176.814 20V17.6932L176.854 16.9425V9.81818H178.872V20H176.814Z" fill="black"/>
<rect x="200.5" y="0.5" width="31" height="31" rx="15.5" fill="white"/>
<rect x="200.5" y="0.5" width="31" height="31" rx="15.5" stroke="#D6D6D6"/>
<path d="M216.032 20.1392C215.33 20.1392 214.703 20.0099 214.153 19.7514C213.606 19.4929 213.172 19.1366 212.85 18.6825C212.529 18.2285 212.362 17.7081 212.348 17.1214H214.436C214.46 17.5159 214.625 17.8357 214.934 18.081C215.242 18.3262 215.608 18.4489 216.032 18.4489C216.37 18.4489 216.669 18.3743 216.927 18.2251C217.189 18.0727 217.393 17.8622 217.539 17.5938C217.688 17.322 217.762 17.0104 217.762 16.6591C217.762 16.3011 217.686 15.9863 217.534 15.7145C217.385 15.4427 217.177 15.2306 216.912 15.0781C216.647 14.9257 216.344 14.8478 216.002 14.8445C215.704 14.8445 215.414 14.9058 215.132 15.0284C214.854 15.151 214.637 15.3184 214.481 15.5305L212.567 15.1875L213.049 9.81818H219.274V11.5781H214.824L214.561 14.1286H214.62C214.799 13.8767 215.069 13.6679 215.431 13.5021C215.792 13.3364 216.196 13.2536 216.644 13.2536C217.257 13.2536 217.804 13.3977 218.284 13.6861C218.765 13.9744 219.145 14.3705 219.423 14.8743C219.701 15.3748 219.839 15.9515 219.836 16.6044C219.839 17.2905 219.68 17.9003 219.358 18.4339C219.04 18.9643 218.594 19.3819 218.021 19.6868C217.451 19.9884 216.788 20.1392 216.032 20.1392Z" fill="black"/>
<rect x="240.5" y="0.5" width="31" height="31" rx="15.5" fill="white"/>
<rect x="240.5" y="0.5" width="31" height="31" rx="15.5" stroke="#D6D6D6"/>
<path d="M252.84 11.41L257.42 16L252.84 20.59L254.25 22L260.25 16L254.25 10L252.84 11.41Z" fill="#D6D6D6"/>
</svg>
