<svg width="12" height="12" viewBox="0 0 12 12" fill="none" xmlns="http://www.w3.org/2000/svg">
<path d="M5.99989 3C8.67433 3.00017 10.3539 5.09202 10.953 6.30469C11.0141 6.42836 11.0141 6.57164 10.953 6.69531C10.3539 7.90798 8.67433 9.99983 5.99989 10C3.32523 10 1.64493 7.90802 1.04579 6.69531C0.984737 6.57168 0.984737 6.42832 1.04579 6.30469C1.64493 5.09198 3.32523 3 5.99989 3ZM5.99989 3.9502C4.60699 3.9502 3.47743 5.06948 3.47743 6.4502C3.47754 7.83081 4.60706 8.9502 5.99989 8.9502C7.39258 8.95002 8.52126 7.83071 8.52137 6.4502C8.52137 5.06959 7.39264 3.95037 5.99989 3.9502Z" fill="#A6A6A6"/>
<path d="M7.45605 6.5C7.45605 7.32843 6.78448 8 5.95605 8C5.12763 8 4.45605 7.32843 4.45605 6.5C4.45605 5.67157 5.12763 5 5.95605 5C6.78448 5 7.45605 5.67157 7.45605 6.5Z" fill="#A6A6A6"/>
</svg>
