<svg width="38" height="38" viewBox="0 0 38 38" fill="none" xmlns="http://www.w3.org/2000/svg">
<rect width="38" height="38" rx="19" fill="#F2F2F2"/>
<path d="M22.2025 15.7366C21.2734 15.7366 20.4784 15.1465 20.1836 14.3362H10.7146C10.3127 14.3362 10 14.0191 10 13.6227C10 13.2264 10.3127 12.9181 10.7146 12.9181H20.1747C20.4695 12.0989 21.2734 11.5 22.2025 11.5C23.1315 11.5 23.9266 12.0989 24.2213 12.9181H27.3122C27.6784 12.9181 28 13.2264 28 13.6227C28 14.0191 27.6784 14.3362 27.3122 14.3362H24.2213C23.9176 15.1465 23.1315 15.7366 22.2025 15.7366ZM22.2025 14.6533C22.7921 14.6533 23.2476 14.1952 23.2476 13.6139C23.2476 13.0326 22.7921 12.5834 22.2025 12.5834C21.6129 12.5834 21.1573 13.0326 21.1573 13.6139C21.1573 14.1952 21.6129 14.6533 22.2025 14.6533ZM10.6789 18.291H13.8769C14.1717 17.4806 14.9667 16.8905 15.8958 16.8905C16.8248 16.8905 17.6199 17.4806 17.9146 18.291H27.2764C27.6784 18.291 28 18.608 28 19.0044C28 19.4008 27.6784 19.709 27.2764 19.709H17.9236C17.6199 20.537 16.8248 21.1271 15.8958 21.1271C14.9667 21.1271 14.1717 20.537 13.8769 19.709H10.6789C10.3127 19.709 10 19.4008 10 19.0044C10 18.608 10.3127 18.291 10.6789 18.291ZM15.8958 20.0349C16.4854 20.0349 16.9409 19.5769 16.9409 19.0044C16.9409 18.4231 16.4854 17.9739 15.8958 17.9739C15.3151 17.9739 14.8506 18.4231 14.8506 19.0044C14.8506 19.5769 15.3151 20.0349 15.8958 20.0349ZM22.2025 26.5C21.2734 26.5 20.4784 25.9099 20.1747 25.0907H10.7146C10.3127 25.0907 10 24.7824 10 24.3861C10 23.9897 10.3127 23.6726 10.7146 23.6726H20.1836C20.4784 22.8535 21.2734 22.2722 22.2025 22.2722C23.1315 22.2722 23.9266 22.8535 24.2213 23.6726H27.3122C27.6784 23.6726 28 23.9897 28 24.3861C28 24.7824 27.6784 25.0907 27.3122 25.0907H24.2213C23.9266 25.9099 23.1315 26.5 22.2025 26.5ZM22.2025 25.4166C22.7921 25.4166 23.2476 24.9586 23.2476 24.3861C23.2476 23.7959 22.7921 23.3555 22.2025 23.3555C21.6129 23.3555 21.1573 23.7959 21.1573 24.3861C21.1573 24.9586 21.6129 25.4166 22.2025 25.4166Z" fill="#A6A6A6"/>
</svg>
